<?xml version="1.0" encoding="UTF-8" standalone="no"?>
<!-- Created with Inkscape (http://www.inkscape.org/) -->

<svg
   xmlns:dc="http://purl.org/dc/elements/1.1/"
   xmlns:cc="http://creativecommons.org/ns#"
   xmlns:rdf="http://www.w3.org/1999/02/22-rdf-syntax-ns#"
   xmlns:svg="http://www.w3.org/2000/svg"
   xmlns="http://www.w3.org/2000/svg"
   xmlns:sodipodi="http://sodipodi.sourceforge.net/DTD/sodipodi-0.dtd"
   xmlns:inkscape="http://www.inkscape.org/namespaces/inkscape"
   width="249.39896mm"
   height="249.39888mm"
   viewBox="0 0 249.39896 249.39888"
   version="1.1"
   id="svg8"
   inkscape:version="0.92.4 (5da689c313, 2019-01-14)"
   sodipodi:docname="deleteIcon.svg"
   inkscape:export-filename="C:\Users\Swedish\Desktop\addIcon.png"
   inkscape:export-xdpi="26.072283"
   inkscape:export-ydpi="26.072283">
  <defs
     id="defs2" />
  <sodipodi:namedview
     id="base"
     pagecolor="#ffffff"
     bordercolor="#666666"
     borderopacity="1.0"
     inkscape:pageopacity="0.0"
     inkscape:pageshadow="2"
     inkscape:zoom="0.7"
     inkscape:cx="-22.568509"
     inkscape:cy="429.83267"
     inkscape:document-units="mm"
     inkscape:current-layer="layer1"
     showgrid="false"
     fit-margin-top="0"
     fit-margin-left="0"
     fit-margin-right="0"
     fit-margin-bottom="0"
     inkscape:window-width="1920"
     inkscape:window-height="1017"
     inkscape:window-x="-8"
     inkscape:window-y="-8"
     inkscape:window-maximized="1" />
  <metadata
     id="metadata5">
    <rdf:RDF>
      <cc:Work
         rdf:about="">
        <dc:format>image/svg+xml</dc:format>
        <dc:type
           rdf:resource="http://purl.org/dc/dcmitype/StillImage" />
        <dc:title></dc:title>
      </cc:Work>
    </rdf:RDF>
  </metadata>
  <g
     inkscape:label="Layer 1"
     inkscape:groupmode="layer"
     id="layer1"
     transform="translate(13.952457,-21.487943)">
    <path
       style="fill:none;fill-opacity:1;stroke:#1e0000;stroke-width:50;stroke-miterlimit:4;stroke-dasharray:none;stroke-dashoffset:0;stroke-opacity:1"
       id="path4978"
       sodipodi:type="arc"
       sodipodi:cx="-146.18735"
       sodipodi:cy="-111.4274"
       sodipodi:rx="97.075363"
       sodipodi:ry="97.075363"
       sodipodi:start="0"
       sodipodi:end="6.2809247"
       sodipodi:open="true"
       d="m -49.111984,-111.4274 a 97.075363,97.075363 0 0 1 -97.020506,97.075349 97.075363,97.075363 0 0 1 -97.13016,-96.965619 97.075363,97.075363 0 0 1 96.91072,-97.18495 97.075363,97.075363 0 0 1 97.239698,96.85577"
       transform="matrix(0,-1,-1,0,0,0)" />
    <path
       transform="scale(-1)"
       d="m -14.352036,-146.18735 a 97.075363,97.075363 0 0 1 -97.020504,97.07535 97.075363,97.075363 0 0 1 -97.13016,-96.96562 97.075363,97.075363 0 0 1 96.91071,-97.18495 97.075363,97.075363 0 0 1 97.239706,96.85577"
       sodipodi:open="true"
       sodipodi:end="6.2809247"
       sodipodi:start="0"
       sodipodi:ry="97.075363"
       sodipodi:rx="97.075363"
       sodipodi:cy="-146.18735"
       sodipodi:cx="-111.4274"
       sodipodi:type="arc"
       id="path4961"
       style="fill:none;fill-opacity:1;stroke:#1e0000;stroke-width:50;stroke-miterlimit:4;stroke-dasharray:none;stroke-dashoffset:0;stroke-opacity:1" />
    <path
       style="fill:none;fill-opacity:1;stroke:#0078b4;stroke-width:37.0872612;stroke-miterlimit:4;stroke-dasharray:none;stroke-dashoffset:0;stroke-opacity:1"
       id="path815"
       sodipodi:type="arc"
       sodipodi:cx="-111.4274"
       sodipodi:cy="-146.18735"
       sodipodi:rx="97.075363"
       sodipodi:ry="97.075363"
       sodipodi:start="0"
       sodipodi:end="6.2644545"
       sodipodi:open="true"
       d="m -14.352036,-146.18735 a 97.075363,97.075363 0 0 1 -96.620794,97.074301 97.075363,97.075363 0 0 1 -97.52567,-96.165161 97.075363,97.075363 0 0 1 95.70742,-97.97492 97.075363,97.075363 0 0 1 98.422016,95.24759"
       transform="scale(-1)" />
    <g
       id="g4976"
       style="stroke:#1e0000;stroke-width:10;stroke-miterlimit:4;stroke-dasharray:none;stroke-opacity:1"
       transform="rotate(-45,110.89823,144.90983)">
      <rect
         style="fill:#8e0000;fill-opacity:1;stroke:#1e0000;stroke-width:10;stroke-miterlimit:4;stroke-dasharray:none;stroke-dashoffset:0;stroke-opacity:1"
         id="rect4970"
         width="37.147972"
         height="134.57378"
         x="-199.98674"
         y="-92.964691"
         ry="18.573986"
         transform="rotate(-135)" />
      <rect
         ry="18.573986"
         y="114.12587"
         x="-44.251789"
         height="134.57378"
         width="37.147972"
         id="rect4972"
         style="fill:#8e0000;fill-opacity:1;stroke:#1e0000;stroke-width:10;stroke-miterlimit:4;stroke-dasharray:none;stroke-dashoffset:0;stroke-opacity:1"
         transform="rotate(-45)" />
      <rect
         transform="rotate(-45)"
         style="fill:#8e0000;fill-opacity:1;stroke:#1e0000;stroke-width:10;stroke-miterlimit:4;stroke-dasharray:none;stroke-dashoffset:0;stroke-opacity:1"
         id="rect4974"
         width="37.147972"
         height="134.57378"
         x="-44.251789"
         y="114.12587"
         ry="18.573986" />
    </g>
    <rect
       style="fill:#0078b4;fill-opacity:1;stroke:none;stroke-width:20.50669098;stroke-miterlimit:4;stroke-dasharray:none;stroke-dashoffset:0;stroke-opacity:1"
       id="rect817"
       width="37.147972"
       height="134.57378"
       x="-130.00136"
       y="-213.82469"
       ry="18.573986"
       transform="scale(-1)" />
    <rect
       ry="18.573986"
       y="44.140488"
       x="-165.11179"
       height="134.57378"
       width="37.147972"
       id="rect819"
       style="fill:#0078b4;fill-opacity:1;stroke:none;stroke-width:20.50669098;stroke-miterlimit:4;stroke-dasharray:none;stroke-dashoffset:0;stroke-opacity:1"
       transform="rotate(-90)" />
    <rect
       transform="rotate(-90)"
       style="fill:#0078b4;fill-opacity:1;stroke:none;stroke-width:10;stroke-miterlimit:4;stroke-dasharray:none;stroke-dashoffset:0;stroke-opacity:1"
       id="rect4963"
       width="37.147972"
       height="134.57378"
       x="-165.11179"
       y="44.140488"
       ry="18.573986" />
    <path
       d="m 208.5028,-146.18735 a 97.075363,97.075363 0 0 1 -96.62079,97.074301 97.075363,97.075363 0 0 1 -97.525679,-96.165161 97.075363,97.075363 0 0 1 95.707429,-97.97492 97.075363,97.075363 0 0 1 98.42201,95.24759"
       sodipodi:open="true"
       sodipodi:end="6.2644545"
       sodipodi:start="0"
       sodipodi:ry="97.075363"
       sodipodi:rx="97.075363"
       sodipodi:cy="-146.18735"
       sodipodi:cx="111.42744"
       sodipodi:type="arc"
       id="path821"
       style="fill:none;fill-opacity:1;stroke:#0078b4;stroke-width:37.0872612;stroke-miterlimit:4;stroke-dasharray:none;stroke-dashoffset:0;stroke-opacity:1"
       transform="scale(1,-1)" />
  </g>
</svg>
